<svg width="28" height="28" viewBox="0 0 28 28" fill="none" xmlns="http://www.w3.org/2000/svg">
<circle cx="14" cy="14" r="14" fill="#3E8E7E"/>
<path d="M14.0801 15.02C14.0667 15.02 14.0467 15.02 14.0334 15.02C14.0134 15.02 13.9867 15.02 13.9667 15.02C12.4534 14.9733 11.3201 13.7933 11.3201 12.34C11.3201 10.86 12.5267 9.65334 14.0067 9.65334C15.4867 9.65334 16.6934 10.86 16.6934 12.34C16.6867 13.8 15.5467 14.9733 14.1001 15.02C14.0867 15.02 14.0867 15.02 14.0801 15.02ZM14.0001 10.6467C13.0667 10.6467 12.3134 11.4067 12.3134 12.3333C12.3134 13.2467 13.0267 13.9867 13.9334 14.02C13.9534 14.0133 14.0201 14.0133 14.0867 14.02C14.9801 13.9733 15.6801 13.24 15.6867 12.3333C15.6867 11.4067 14.9334 10.6467 14.0001 10.6467Z" fill="white"/>
<path d="M14 20.6667C15.564 20.6667 17.0709 20.1187 18.2676 19.1167L18.3317 19.063C17.1215 20.1001 15.595 20.6667 14 20.6667ZM14 20.6667C12.436 20.6667 10.929 20.1187 9.73231 19.1167L9.6682 19.063C10.8784 20.1001 12.4049 20.6667 14 20.6667ZM9.57375 18.5918L9.54096 18.7029C9.61626 18.3799 9.78079 18.0601 10.0373 17.7641C9.82216 18.0147 9.66187 18.2932 9.57375 18.5918ZM18.4262 18.5918C18.3101 18.1983 18.0657 17.8413 17.7399 17.5372C18.1263 17.8955 18.3635 18.2958 18.4587 18.7019L18.4262 18.5918Z" fill="white" stroke="white"/>
<path d="M13.9999 21.1667C10.0466 21.1667 6.83325 17.9533 6.83325 14C6.83325 10.0467 10.0466 6.83334 13.9999 6.83334C17.9533 6.83334 21.1666 10.0467 21.1666 14C21.1666 17.9533 17.9533 21.1667 13.9999 21.1667ZM13.9999 7.83334C10.5999 7.83334 7.83325 10.6 7.83325 14C7.83325 17.4 10.5999 20.1667 13.9999 20.1667C17.3999 20.1667 20.1666 17.4 20.1666 14C20.1666 10.6 17.3999 7.83334 13.9999 7.83334Z" fill="white"/>
</svg>
